:SAMPLES-PER-SECOND 30
:FULLY-SPECIFIED
:DEGREES
421
root  -73.6563 41.506 -4.28786 139.852 86.5381 142.95
RightUpLeg  0.538549 -9.03385 -5.16762
RightLeg  10.4439 -3.23559 2.16086
RightFoot  -7.12568 0.0426116 -2.36205
RightToes  0.000482159 0.542163 -0.142577
Spine  5.43267 0.23503 -0.95545
Spine1  -0.39495 0.403668 -0.334191
HEad  1.36132 -2.02885 2.1506
LeftShoulder1  0.652976 -1.47927 -5.2173
LeftArm  -19.7586 5.93171 -7.43286
LeftForeArm  17.4789 -4.91577 -1.6122
LeftHand  -0.25398 0.0180481 5.50724
RightShoulder  0.207178 -1.8509 4.65554
RightArm  -24.094 -2.06115 3.70899
RightForeArm  2.91361 5.01848 2.27552
RightHand  -2.51583 8.32546 -21.4857
LeftUpLeg  0.196067 3.65319 0.046378
LeftLeg  4.6538 10.9335 -2.81174
LeftFoot  -1.62678 -0.1042 1.30912
LeftToes  1.06245e-005 4.65855e-005 -8.18503e-006
422
root  -73.6721 41.5025 -4.28153 143.772 86.4746 146.84
RightUpLeg  0.567619 -8.99956 -5.01847
RightLeg  10.319 -3.45875 2.23007
RightFoot  -7.07831 0.0432636 -2.36473
RightToes  0.000482159 0.542163 -0.142577
Spine  5.57896 0.283485 -0.990856
Spine1  -0.531595 0.42376 -0.202927
HEad  0.870497 -2.32405 2.29201
LeftShoulder1  0.652472 -1.42223 -5.37369
LeftArm  -20.2328 5.61605 -7.90101
LeftForeArm  16.3818 -4.22221 -1.41012
LeftHand  -0.25398 0.0180481 5.50724
RightShoulder  0.249733 -1.56947 5.09049
RightArm  -23.9105 -2.65504 3.65096
RightForeArm  5.55691 3.03017 1.68935
RightHand  -2.29103 7.72957 -20.4876
LeftUpLeg  -0.00566282 3.79281 0.197192
LeftLeg  4.93076 10.6195 -2.70984
LeftFoot  -1.74064 -0.101699 1.27023
LeftToes  1.06245e-005 4.65855e-005 -8.18503e-006
423
root  -73.6841 41.5052 -4.26844 149.821 86.3266 153.057
RightUpLeg  0.930778 -8.87912 -4.78423
RightLeg  9.99032 -3.91353 2.30487
RightFoot  -6.93503 0.0454832 -2.39059
RightToes  0.000482159 0.542163 -0.142577
Spine  6.06625 0.237298 -1.0364
Spine1  -0.805573 0.30899 0.078864
HEad  0.396459 -2.37477 2.0558
LeftShoulder1  0.660539 -1.41684 -5.5726
LeftArm  -20.0118 5.47153 -7.83139
LeftForeArm  16.4053 -3.84161 -1.44893
LeftHand  -0.25398 0.0180481 5.50724
RightShoulder  0.252677 -1.58343 5.36689
RightArm  -24.6383 -2.87061 3.66628
RightForeArm  5.99791 1.15843 1.07078
RightHand  -2.02501 6.87891 -19.3959
LeftUpLeg  0.0286681 3.96854 0.482613
LeftLeg  5.11653 10.1325 -2.66493
LeftFoot  -1.81732 -0.101053 1.26019
LeftToes  1.06245e-005 4.65855e-005 -8.18503e-006
424
root  -73.6904 41.5069 -4.23898 152.965 86.0884 156.222
RightUpLeg  1.03489 -8.83748 -4.6682
RightLeg  9.87514 -4.28256 2.32421
RightFoot  -6.88116 0.0484453 -2.42737
RightToes  0.000482159 0.542163 -0.142577
Spine  6.34158 0.222611 -1.47364
Spine1  -0.95153 0.17655 0.630527
HEad  -0.217259 -2.07253 1.59996
LeftShoulder1  0.675641 -1.48149 -5.71909
LeftArm  -19.5188 5.45504 -7.43687
LeftForeArm  16.857 -3.70591 -1.59434
LeftHand  -0.25398 0.0180481 5.50724
RightShoulder  0.223097 -1.82166 5.48025
RightArm  -25.6792 -3.10059 3.75899
RightForeArm  4.20613 0.104427 0.666891
RightHand  -1.77293 5.88599 -18.4931
LeftUpLeg  -0.00461288 4.05282 0.631395
LeftLeg  5.13836 9.69939 -2.70665
LeftFoot  -1.78254 -0.0972518 1.2011
LeftToes  1.06245e-005 4.65855e-005 -8.18503e-006
425
root  -73.6905 41.5088 -4.21766 155.195 85.7819 158.463
RightUpLeg  1.14481 -8.83328 -4.64836
RightLeg  9.7747 -4.63279 2.36135
RightFoot  -6.86759 0.0486385 -2.421
RightToes  0.000482159 0.542163 -0.142577
Spine  6.52433 0.154553 -1.81145
Spine1  -0.968606 0.0393346 0.947714
HEad  -0.870737 -1.65896 1.38494
LeftShoulder1  0.674325 -1.52255 -5.56668
LeftArm  -19.4031 5.5148 -7.13144
LeftForeArm  17.4114 -3.70538 -1.60126
LeftHand  -0.25398 0.0180481 5.50724
RightShoulder  0.206796 -1.95251 5.55441
RightArm  -26.1915 -3.67325 3.69443
RightForeArm  1.63373 0.0298609 0.61606
RightHand  -1.55537 4.80449 -17.9364
LeftUpLeg  -0.0238791 4.08332 0.692353
LeftLeg  5.14218 9.29162 -2.73008
LeftFoot  -1.73661 -0.0934504 1.14201
LeftToes  1.06245e-005 4.65855e-005 -8.18503e-006
426
root  -73.6932 41.5116 -4.21117 156.708 85.5662 159.902
RightUpLeg  1.12777 -8.81107 -4.62286
RightLeg  9.69546 -4.8987 2.38185
RightFoot  -6.83785 0.0481565 -2.40364
RightToes  0.000482159 0.542163 -0.142577
Spine  6.5971 0.0637042 -1.89449
Spine1  -0.955687 -0.05344 0.927622
HEad  -1.40186 -1.39927 1.47211
LeftShoulder1  0.651188 -1.46771 -5.20986
LeftArm  -19.6784 5.61965 -6.98088
LeftForeArm  18.0324 -3.83724 -1.47023
LeftHand  -0.25398 0.0180481 5.50724
RightShoulder  0.219137 -1.8632 5.58745
RightArm  -26.1714 -4.33686 3.47452
RightForeArm  0.222031 0.407806 0.709759
RightHand  -1.4061 3.9821 -17.6205
LeftUpLeg  -0.119905 4.05933 0.702343
LeftLeg  5.11108 9.10393 -2.73813
LeftFoot  -1.69175 -0.096121 1.18352
LeftToes  1.06245e-005 4.65855e-005 -8.18503e-006
427
root  -73.6978 41.5138 -4.21155 157.486 85.4981 160.56
RightUpLeg  0.985366 -8.76876 -4.5539
RightLeg  9.70005 -5.04233 2.3381
RightFoot  -6.79912 0.0494287 -2.40237
RightToes  0.000482159 0.542163 -0.142577
Spine  6.65015 0.00265911 -1.90853
Spine1  -0.999411 -0.109204 0.862606
HEad  -1.72797 -1.27932 1.48094
LeftShoulder1  0.623966 -1.34235 -4.95802
LeftArm  -19.8809 5.77374 -6.83832
LeftForeArm  18.4229 -4.19614 -1.40922
LeftHand  -0.25398 0.0180481 5.50724
RightShoulder  0.227854 -1.78487 5.47155
RightArm  -26.1662 -4.64625 3.38658
RightForeArm  0.33024 0.793537 0.733024
RightHand  -1.36873 3.80234 -17.4849
LeftUpLeg  -0.252555 4.01555 0.705576
LeftLeg  5.06461 9.08359 -2.74964
LeftFoot  -1.65235 -0.0996337 1.23813
LeftToes  1.06245e-005 4.65855e-005 -8.18503e-006
428
root  -73.6999 41.5132 -4.20992 157.615 85.5084 160.612
RightUpLeg  0.848219 -8.73671 -4.49184
RightLeg  9.77656 -5.08552 2.26255
RightFoot  -6.79167 0.0493161 -2.37796
RightToes  0.000482159 0.542163 -0.142577
Spine  6.77074 -0.0125401 -2.00934
Spine1  -1.12061 -0.147173 0.941592
HEad  -1.86543 -1.18559 1.23176
LeftShoulder1  0.605452 -1.22454 -4.87548
LeftArm  -19.8339 5.94477 -6.70781
LeftForeArm  18.4596 -4.65492 -1.47671
LeftHand  -0.25398 0.0180481 5.50724
RightShoulder  0.213403 -1.87239 5.2755
RightArm  -26.2819 -4.57649 3.50578
RightForeArm  0.837919 1.22919 0.762822
RightHand  -1.42454 4.15832 -17.5303
LeftUpLeg  -0.345798 4.02247 0.722781
LeftLeg  5.07884 9.0557 -2.76222
LeftFoot  -1.64356 -0.0967376 1.19311
LeftToes  1.06245e-005 4.65855e-005 -8.18503e-006
429
root  -73.7016 41.512 -4.20957 157.585 85.5732 160.563
RightUpLeg  0.798663 -8.71351 -4.45611
RightLeg  9.80923 -5.05715 2.2428
RightFoot  -6.78176 0.047884 -2.33179
RightToes  0.000482159 0.542163 -0.142577
Spine  6.95232 0.00470882 -2.03912
Spine1  -1.29283 -0.141058 0.984616
HEad  -1.87595 -1.14661 0.909179
LeftShoulder1  0.598668 -1.19001 -4.81838
LeftArm  -19.7939 6.04884 -6.67831
LeftForeArm  18.5952 -4.84767 -1.50481
LeftHand  -0.25398 0.0180481 5.50724
RightShoulder  0.206158 -1.92475 5.24634
RightArm  -26.187 -4.45745 3.50632
RightForeArm  0.984247 1.828 0.930913
RightHand  -1.48117 4.49783 -17.6105
LeftUpLeg  -0.393755 4.09774 0.766243
LeftLeg  5.15855 9.02355 -2.76379
LeftFoot  -1.67549 -0.0916689 1.11432
LeftToes  1.06245e-005 4.65855e-005 -8.18503e-006
430
root  -73.706 41.5122 -4.2174 157.662 85.7465 160.62
RightUpLeg  0.785347 -8.68994 -4.41762
RightLeg  9.73427 -4.93584 2.31557
RightFoot  -6.70268 0.0500446 -2.34075
RightToes  0.000482159 0.542163 -0.142577
Spine  7.14785 0.0604291 -1.83101
Spine1  -1.50786 -0.0508201 0.821136
HEad  -1.8115 -1.19237 0.656812
LeftShoulder1  0.612737 -1.30983 -4.793
LeftArm  -19.8653 6.06482 -6.68129
LeftForeArm  19.1001 -4.62048 -1.41688
LeftHand  -0.25398 0.0180481 5.50724
RightShoulder  0.231809 -1.75485 5.46764
RightArm  -25.8474 -4.42911 3.18458
RightForeArm  0.998951 2.43107 1.16045
RightHand  -1.48643 4.53178 -17.6133
LeftUpLeg  -0.440587 4.1853 0.83606
LeftLeg  5.22793 9.11156 -2.75254
LeftFoot  -1.71935 -0.0905125 1.09634
LeftToes  1.06245e-005 4.65855e-005 -8.18503e-006
431
root  -73.7113 41.5147 -4.23078 157.676 85.9972 160.586
RightUpLeg  0.756098 -8.6807 -4.3756
RightLeg  9.60577 -4.73282 2.43592
RightFoot  -6.56731 0.056961 -2.42341
RightToes  0.000482159 0.542163 -0.142577
Spine  7.37083 0.160232 -1.51364
Spine1  -1.79211 0.0979041 0.591252
HEad  -1.6161 -1.24501 0.471068
LeftShoulder1  0.65535 -1.59507 -4.93722
LeftArm  -19.7488 6.06704 -6.58471
LeftForeArm  19.4942 -4.25766 -1.38342
LeftHand  -0.25398 0.0180481 5.50724
RightShoulder  0.259023 -1.57927 5.707
RightArm  -25.6308 -4.28721 2.87395
RightForeArm  1.32741 2.84787 1.29817
RightHand  -1.48523 4.54331 -17.5804
LeftUpLeg  -0.493151 4.2351 0.909222
LeftLeg  5.24872 9.30774 -2.73584
LeftFoot  -1.74591 -0.0910032 1.10397
LeftToes  1.06245e-005 4.65855e-005 -8.18503e-006
432
root  -73.713 41.5173 -4.24188 157.615 86.1801 160.469
RightUpLeg  0.716133 -8.69208 -4.35729
RightLeg  9.50491 -4.56058 2.53691
RightFoot  -6.45456 0.0627801 -2.4891
RightToes  0.000482159 0.542163 -0.142577
Spine  7.61589 0.26172 -1.32174
Spine1  -2.09693 0.216073 0.519834
HEad  -1.21745 -1.24873 0.439547
LeftShoulder1  0.707434 -1.89711 -5.2209
LeftArm  -19.26 6.08493 -6.44907
LeftForeArm  19.4718 -4.08764 -1.54269
LeftHand  -0.25398 0.0180481 5.50724
RightShoulder  0.242374 -1.70136 5.68419
RightArm  -25.71 -3.87948 3.03044
RightForeArm  2.04471 3.10427 1.33347
RightHand  -1.51597 4.80321 -17.4986
LeftUpLeg  -0.543532 4.25214 0.953126
LeftLeg  5.25047 9.46251 -2.72136
LeftFoot  -1.75532 -0.0903618 1.094
LeftToes  1.06245e-005 4.65855e-005 -8.18503e-006
433
root  -73.7092 41.5189 -4.24872 157.726 86.2225 160.475
RightUpLeg  0.622915 -8.70133 -4.35741
RightLeg  9.4606 -4.51305 2.58709
RightFoot  -6.40101 0.0628562 -2.47196
RightToes  0.000482159 0.542163 -0.142577
Spine  7.74128 0.311325 -1.29679
Spine1  -2.2524 0.24808 0.621447
HEad  -0.797579 -1.27287 0.652605
LeftShoulder1  0.730695 -1.99204 -5.44404
LeftArm  -18.7251 6.04674 -6.47089
LeftForeArm  19.5955 -4.09258 -1.75504
LeftHand  -0.25398 0.0180481 5.50724
RightShoulder  0.200075 -1.98844 5.41184
RightArm  -25.8404 -3.37389 3.56663
RightForeArm  2.92636 3.29433 1.35156
RightHand  -1.53956 5.09284 -17.2951
LeftUpLeg  -0.645847 4.25144 0.953952
LeftLeg  5.24899 9.51417 -2.72056
LeftFoot  -1.75223 -0.0916527 1.11407
LeftToes  1.06245e-005 4.65855e-005 -8.18503e-006
434
root  -73.6988 41.5213 -4.25362 157.929 86.2139 160.461
RightUpLeg  0.407022 -8.68469 -4.34288
RightLeg  9.44462 -4.5455 2.60114
RightFoot  -6.36721 0.0594801 -2.41941
RightToes  0.000482159 0.542163 -0.142577
Spine  7.61914 0.315537 -1.31618
Spine1  -2.16198 0.23026 0.746327
HEad  -0.753769 -1.35482 0.947765
LeftShoulder1  0.713456 -1.83787 -5.50783
LeftArm  -18.5549 5.92577 -6.69313
LeftForeArm  20.3944 -4.06479 -1.80762
LeftHand  -0.25398 0.0180481 5.50724
RightShoulder  0.190935 -2.03347 5.17073
RightArm  -25.7842 -3.0411 3.94945
RightForeArm  3.60795 3.41683 1.39112
RightHand  -1.52656 5.12678 -17.1021
LeftUpLeg  -0.850615 4.2296 0.932999
LeftLeg  5.21004 9.54926 -2.74949
LeftFoot  -1.72221 -0.0962998 1.1863
LeftToes  1.06245e-005 4.65855e-005 -8.18503e-006
435
root  -73.6821 41.5263 -4.25622 157.953 86.258 160.206
RightUpLeg  0.138104 -8.63894 -4.30345
RightLeg  9.3964 -4.56429 2.61402
RightFoot  -6.30492 0.0584948 -2.40407
RightToes  0.000482159 0.542163 -0.142577
Spine  7.36516 0.322166 -1.29197
Spine1  -1.97228 0.230469 0.785999
HEad  -1.2239 -1.38429 1.11153
LeftShoulder1  0.685341 -1.63121 -5.49198
LeftArm  -18.6995 5.82213 -6.94148
LeftForeArm  21.3986 -3.96679 -1.71491
LeftHand  -0.25398 0.0180481 5.50724
RightShoulder  0.227644 -1.75052 5.16322
RightArm  -25.6065 -2.94712 3.91015
RightForeArm  3.76262 3.48659 1.44406
RightHand  -1.52069 5.02851 -17.1908
LeftUpLeg  -1.08212 4.19323 0.931145
LeftLeg  5.11111 9.63965 -2.80871
LeftFoot  -1.65758 -0.0999447 1.24296
LeftToes  1.06245e-005 4.65855e-005 -8.18503e-006
